<svg width="50" height="50" viewBox="0 0 50 50" fill="none" xmlns="http://www.w3.org/2000/svg">
  <circle cx="25" cy="25" r="25" fill="#2a5b4b"/>
  <path d="M21 28L13.0977 34C12.7644 35.5 13.0977 38.2 17.0977 37L22.5977 29.5006M22.5977 29.5006L23.597 30.5C28.597 28.5 28.597 36 32.597 37C35.797 37.8 36.2637 35.3333 36.097 34L27.7947 25.5M22.5977 29.5006L14.597 21.5C13.4304 19.6667 11.897 15.3 15.097 12.5L25.597 23.25M33.0977 12L27.0977 18C26.2639 18.8333 24.7965 21.05 25.597 23.25M25.597 23.25L27.7947 25.5M35.5977 15L29.5977 21M38.0977 17.5C36.0624 20.1667 31.1523 25.5 27.7947 25.5" stroke="white" stroke-width="2"/>
</svg>
