<svg width="16" height="12" viewBox="0 0 16 12" fill="none" xmlns="http://www.w3.org/2000/svg">
<path d="M15.566 1.42342C15.0232 1.66396 14.44 1.82649 13.827 1.89995C14.4595 1.52145 14.9328 0.925741 15.1584 0.223974C14.5641 0.576974 13.9136 0.825448 13.2354 0.958593C12.7792 0.471576 12.1751 0.148773 11.5167 0.0403016C10.8583 -0.06817 10.1825 0.0437586 9.59427 0.35871C9.00602 0.673661 8.5382 1.17401 8.26345 1.78209C7.9887 2.39016 7.9224 3.07193 8.07482 3.72154C6.87062 3.66108 5.69259 3.34809 4.61718 2.80288C3.54178 2.25767 2.59303 1.49244 1.8325 0.556828C1.57246 1.0054 1.42294 1.52549 1.42294 2.07938C1.42265 2.578 1.54544 3.069 1.78042 3.50879C2.0154 3.94858 2.3553 4.32357 2.76996 4.60049C2.28906 4.58519 1.81877 4.45524 1.39823 4.22148V4.26048C1.39819 4.95983 1.64009 5.63765 2.08291 6.17894C2.52573 6.72023 3.14219 7.09165 3.82768 7.23017C3.38157 7.3509 2.91385 7.36869 2.45986 7.28218C2.65326 7.88392 3.03 8.41013 3.53732 8.78712C4.04465 9.16412 4.65716 9.37303 5.28912 9.38462C4.21634 10.2268 2.89145 10.6836 1.52761 10.6816C1.28601 10.6816 1.04463 10.6675 0.804688 10.6393C2.18907 11.5294 3.8006 12.0018 5.44644 12C11.0179 12 14.0636 7.38554 14.0636 3.38349C14.0636 3.25347 14.0603 3.12215 14.0545 2.99213C14.6469 2.56369 15.1583 2.03315 15.5647 1.42537L15.566 1.42342Z" fill="black"/>
</svg>
