<svg width="16" height="16" viewBox="0 0 16 16" fill="none" xmlns="http://www.w3.org/2000/svg">
<path d="M2.38974 3.64667C3.39674 3.64667 4.21307 2.83033 4.21307 1.82333C4.21307 0.816334 3.39674 0 2.38974 0C1.38274 0 0.566406 0.816334 0.566406 1.82333C0.566406 2.83033 1.38274 3.64667 2.38974 3.64667Z" fill="black"/>
<path d="M5.93474 5.02832V15.1442H9.07557V10.1417C9.07557 8.82165 9.3239 7.54332 10.9606 7.54332C12.5747 7.54332 12.5947 9.05249 12.5947 10.225V15.145H15.7372V9.59749C15.7372 6.87249 15.1506 4.77832 11.9656 4.77832C10.4364 4.77832 9.41141 5.61749 8.99224 6.41165H8.94974V5.02832H5.93474ZM0.816406 5.02832H3.96224V15.1442H0.816406V5.02832Z" fill="black"/>
</svg>
