<svg width="16" height="11" viewBox="0 0 16 11" fill="none" xmlns="http://www.w3.org/2000/svg">
<path d="M15.0001 2.208C15.0001 2.208 14.8561 1.2 14.4241 0.768C13.8961 0.192 13.2721 0.192 12.9841 0.144C10.9681 8.58307e-08 7.94414 0 7.94414 0C7.94414 0 4.92014 8.58307e-08 2.90414 0.144C2.61614 0.192 1.99214 0.192 1.46414 0.768C1.03214 1.2 0.888141 2.208 0.888141 2.208C0.888141 2.208 0.744141 3.36 0.744141 4.512V5.568C0.744141 6.72 0.888141 7.92 0.888141 7.92C0.888141 7.92 1.03214 8.928 1.46414 9.36C1.99214 9.936 2.71214 9.936 3.04814 9.984C4.20014 10.032 7.94414 10.08 7.94414 10.08C7.94414 10.08 10.9681 10.08 12.9841 9.936C13.2721 9.888 13.8961 9.888 14.4241 9.312C14.8561 8.88 15.0001 7.872 15.0001 7.872C15.0001 7.872 15.1441 6.72 15.1441 5.568V4.512C15.1441 3.36 15.0001 2.208 15.0001 2.208ZM6.45614 6.912V2.88L10.3441 4.896L6.45614 6.912Z" fill="black"/>
</svg>
