<svg width="16" height="16" viewBox="0 0 16 16" fill="none" xmlns="http://www.w3.org/2000/svg">
<path d="M8.23633 15.03C6.18633 15.03 5.94466 15.0192 5.14466 14.9842C4.5208 14.9637 3.90502 14.8368 3.32383 14.6092C2.82648 14.4156 2.37481 14.1208 1.99751 13.7433C1.62021 13.3659 1.32552 12.9141 1.13216 12.4167C0.91325 11.8334 0.795176 11.2171 0.782995 10.5942C0.736328 9.79583 0.736328 9.53417 0.736328 7.5C0.736328 5.44417 0.747161 5.20417 0.782995 4.40833C0.795443 3.78627 0.913512 3.17084 1.13216 2.58833C1.3253 2.09028 1.62019 1.63798 1.99799 1.26032C2.37579 0.882666 2.8282 0.58795 3.32633 0.395C3.90853 0.175169 4.52412 0.0567868 5.14633 0.0449999C5.94216 -8.3819e-08 6.20383 0 8.23633 0C10.303 0 10.5405 0.0108332 11.328 0.0449999C11.9513 0.0566666 12.5697 0.175 13.153 0.395C13.651 0.588174 14.1033 0.882968 14.4811 1.2606C14.8588 1.63823 15.1538 2.09041 15.3472 2.58833C15.5697 3.18 15.6888 3.805 15.698 4.43583C15.7447 5.23417 15.7447 5.495 15.7447 7.52833C15.7447 9.56167 15.733 9.82833 15.698 10.6175C15.6855 11.241 15.5672 11.8578 15.348 12.4417C15.1541 12.9394 14.8589 13.3915 14.481 13.769C14.1032 14.1466 13.6509 14.4415 13.153 14.635C12.5697 14.8533 11.9538 14.9717 11.3313 14.9842C10.5355 15.03 10.2747 15.03 8.23633 15.03ZM8.208 1.31917C6.16966 1.31917 5.95799 1.32917 5.16216 1.365C4.68687 1.37121 4.21616 1.45887 3.77049 1.62417C3.44544 1.74876 3.1501 1.94009 2.90351 2.18582C2.65692 2.43154 2.46456 2.72621 2.33883 3.05083C2.17216 3.50083 2.08466 3.97667 2.07966 4.45667C2.03549 5.26417 2.03549 5.47583 2.03549 7.5C2.03549 9.5 2.04299 9.7425 2.07966 10.545C2.08716 11.02 2.17466 11.4908 2.33883 11.9367C2.59383 12.5925 3.11383 13.1108 3.77133 13.3625C4.21642 13.5288 4.68704 13.6165 5.16216 13.6217C5.96883 13.6683 6.18133 13.6683 8.208 13.6683C10.2522 13.6683 10.4638 13.6583 11.253 13.6217C11.7283 13.6159 12.1991 13.5282 12.6447 13.3625C12.968 13.237 13.2616 13.0455 13.507 12.8003C13.7523 12.5551 13.9439 12.2616 14.0697 11.9383C14.2363 11.4883 14.3238 11.0117 14.3288 10.5317H14.338C14.3738 9.735 14.3738 9.5225 14.3738 7.48667C14.3738 5.45083 14.3647 5.23667 14.3288 4.44083C14.3213 3.96621 14.2337 3.49628 14.0697 3.05083C13.9442 2.72712 13.7527 2.43309 13.5074 2.18746C13.262 1.94183 12.9682 1.74999 12.6447 1.62417C12.1988 1.4575 11.728 1.37083 11.253 1.365C10.4472 1.31917 10.2363 1.31917 8.208 1.31917ZM8.23633 11.3492C7.47431 11.3497 6.72925 11.1242 6.0954 10.7012C5.46155 10.2782 4.96737 9.67674 4.67538 8.97288C4.38339 8.26902 4.30669 7.49438 4.45499 6.74692C4.60329 5.99947 4.96992 5.31278 5.50852 4.77372C6.04712 4.23465 6.73349 3.86742 7.48081 3.71848C8.22814 3.56953 9.00285 3.64556 9.70696 3.93694C10.4111 4.22833 11.013 4.72198 11.4365 5.35547C11.86 5.98895 12.0862 6.73381 12.0863 7.49583C12.085 8.51682 11.6791 9.49566 10.9574 10.2179C10.2358 10.9402 9.25731 11.347 8.23633 11.3492ZM8.23633 4.99417C7.74188 4.99417 7.25853 5.14079 6.8474 5.41549C6.43628 5.6902 6.11585 6.08064 5.92663 6.53746C5.73741 6.99427 5.6879 7.49694 5.78437 7.98189C5.88083 8.46684 6.11893 8.9123 6.46856 9.26193C6.81819 9.61156 7.26365 9.84967 7.7486 9.94613C8.23356 10.0426 8.73622 9.99308 9.19304 9.80387C9.64985 9.61465 10.0403 9.29422 10.315 8.88309C10.5897 8.47197 10.7363 7.98862 10.7363 7.49417C10.7348 6.8316 10.4709 6.19661 10.0024 5.7281C9.53389 5.25959 8.8989 4.99571 8.23633 4.99417ZM12.2363 4.4C12.1184 4.39956 12.0016 4.37589 11.8928 4.33034C11.784 4.28479 11.6852 4.21825 11.6021 4.13453C11.4342 3.96543 11.3404 3.73659 11.3413 3.49833C11.3422 3.26008 11.4377 3.03194 11.6068 2.86409C11.7759 2.69625 12.0047 2.60245 12.243 2.60333C12.4812 2.60422 12.7094 2.69971 12.8772 2.86881C13.0451 3.0379 13.1389 3.26675 13.138 3.505C13.1371 3.74325 13.0416 3.9714 12.8725 4.13924C12.7034 4.30709 12.4746 4.40088 12.2363 4.4Z" fill="black"/>
</svg>
