<svg width="24" height="24" viewBox="0 0 24 24" fill="none" xmlns="http://www.w3.org/2000/svg">
<path d="M4.98292 7.19704C6.19132 7.19704 7.17092 6.21744 7.17092 5.00904C7.17092 3.80065 6.19132 2.82104 4.98292 2.82104C3.77452 2.82104 2.79492 3.80065 2.79492 5.00904C2.79492 6.21744 3.77452 7.19704 4.98292 7.19704Z" fill="black"/>
<path d="M9.2377 8.85493V20.9939H13.0067V14.9909C13.0067 13.4069 13.3047 11.8729 15.2687 11.8729C17.2057 11.8729 17.2297 13.6839 17.2297 15.0909V20.9949H21.0007V14.3379C21.0007 11.0679 20.2967 8.55493 16.4747 8.55493C14.6397 8.55493 13.4097 9.56193 12.9067 10.5149H12.8557V8.85493H9.2377V8.85493ZM3.0957 8.85493H6.8707V20.9939H3.0957V8.85493Z" fill="black"/>
</svg>
