<svg width="124" height="124" viewBox="0 0 124 124" fill="none" xmlns="http://www.w3.org/2000/svg">
<path d="M62 87.3398C75.9948 87.3398 87.3398 75.9948 87.3398 62C87.3398 48.0052 75.9948 36.6602 62 36.6602C48.0052 36.6602 36.6602 48.0052 36.6602 62C36.6602 75.9948 48.0052 87.3398 62 87.3398Z" stroke="#205033" stroke-width="5" stroke-linecap="round" stroke-linejoin="round"/>
<path d="M25.2667 98.7333L20.7556 103.244M4 62H10.4444H4ZM62 4V10.4444V4ZM113.556 62H120H113.556ZM62 113.556V120V113.556ZM20.7556 20.7556L25.2667 25.2667L20.7556 20.7556ZM103.244 20.7556L98.7333 25.2667L103.244 20.7556ZM98.7333 98.7333L103.244 103.244L98.7333 98.7333Z" stroke="#205033" stroke-width="7" stroke-linecap="round" stroke-linejoin="round"/>
</svg>

