<svg width="50" height="50" viewBox="0 0 50 50" fill="none" xmlns="http://www.w3.org/2000/svg">
<path d="M43.75 15.6246C43.75 16.6933 43.6437 17.7402 43.4375 18.7495H45.8281C48.1312 18.7495 50 20.6182 50 22.9213V34.3741C50.0003 37.3312 49.1613 40.2277 47.5807 42.7269C46 45.2261 43.7426 47.2255 41.0707 48.4927C38.3988 49.7599 35.4221 50.2428 32.4866 49.8855C29.5511 49.5281 26.7773 48.345 24.4875 46.4738L21.4188 49.5424C21.1254 49.8354 20.7276 49.9998 20.313 49.9995C19.8983 49.9992 19.5008 49.8343 19.2078 49.5409C18.9148 49.2475 18.7504 48.8497 18.7507 48.4351C18.751 48.0205 18.916 47.623 19.2094 47.33L22.2781 44.2613C21.2421 42.9968 20.4112 41.5775 19.8156 40.0552C17.4941 40.7015 15.0545 40.8021 12.6877 40.349C10.3208 39.896 8.0908 38.9017 6.17202 37.4438C4.25324 35.986 2.69768 34.104 1.62698 31.9452C0.55627 29.7863 -0.000566621 27.4091 3.91361e-06 24.9993V13.5465C-0.00312109 11.2435 1.86563 9.37475 4.16875 9.37475H13.7969C15.0138 6.58743 17.0177 4.21578 19.5628 2.55056C22.1078 0.885336 25.0835 -0.00107519 28.125 9.78749e-07H39.5781C41.8812 9.78749e-07 43.75 1.8687 43.75 4.17176V15.6246ZM17.25 9.45912C20.1034 9.75758 22.8197 10.8352 25.1016 12.5742C27.3835 14.3131 29.143 16.6462 30.1875 19.3182C31.5512 18.9401 32.9599 18.7488 34.375 18.7495H40.2312C40.4875 17.7495 40.625 16.7027 40.625 15.6246V4.17176C40.625 4.03429 40.5979 3.89816 40.5453 3.77115C40.4927 3.64414 40.4156 3.52874 40.3184 3.43153C40.2212 3.33432 40.1058 3.25721 39.9787 3.2046C39.8517 3.15199 39.7156 3.12492 39.5781 3.12492H28.125C25.914 3.12435 23.7424 3.71036 21.8319 4.82316C19.9214 5.93596 18.3403 7.5357 17.25 9.45912ZM26.7094 44.2488C28.5571 45.6833 30.7703 46.5706 33.0972 46.8097C35.4242 47.0488 37.7716 46.6301 39.8724 45.6014C41.9733 44.5727 43.7433 42.9751 44.9812 40.9903C46.2191 39.0055 46.8753 36.7132 46.875 34.3741V22.9213C46.875 22.6436 46.7647 22.3774 46.5684 22.181C46.372 21.9847 46.1058 21.8744 45.8281 21.8744H34.375C32.0358 21.8742 29.7434 22.5303 27.7586 23.7682C25.7738 25.006 24.1762 26.776 23.1474 28.8768C22.1186 30.9776 21.7 33.3249 21.9391 35.6518C22.1782 37.9787 23.0655 40.1918 24.5 42.0395L34.8312 31.7054C35.1246 31.412 35.5226 31.2472 35.9375 31.2472C36.3524 31.2472 36.7504 31.412 37.0437 31.7054C37.3371 31.9988 37.502 32.3967 37.502 32.8116C37.502 33.2265 37.3371 33.6245 37.0437 33.9178L26.7094 44.2488ZM18.75 34.3741C18.75 33.1272 18.8969 31.9179 19.1719 30.7554L11.3938 22.9806C11.2485 22.8354 11.1332 22.6629 11.0546 22.4731C10.976 22.2833 10.9355 22.0799 10.9355 21.8744C10.9355 21.669 10.976 21.4655 11.0546 21.2757C11.1332 21.0859 11.2485 20.9135 11.3938 20.7682C11.6871 20.4748 12.0851 20.31 12.5 20.31C12.7055 20.31 12.9089 20.3504 13.0987 20.4291C13.2885 20.5077 13.461 20.6229 13.6063 20.7682L20.3375 27.5024C21.8297 24.4661 24.263 21.9933 27.275 20.4526C26.3591 18.1085 24.7572 16.0953 22.6786 14.6764C20.6001 13.2575 18.1417 12.4988 15.625 12.4997H4.17188C3.89423 12.4997 3.62795 12.61 3.43163 12.8063C3.2353 13.0026 3.125 13.2689 3.125 13.5465V24.9993C3.12471 26.9271 3.57033 28.8288 4.42701 30.5558C5.2837 32.2828 6.52823 33.7882 8.0633 34.9544C9.59838 36.1206 11.3824 36.9159 13.2759 37.2782C15.1693 37.6404 17.121 37.5599 18.9781 37.0428C18.8263 36.1613 18.75 35.2685 18.75 34.3741Z" fill="#205033"/>
</svg>
