<svg width="154" height="174" viewBox="0 0 154 174" fill="none" xmlns="http://www.w3.org/2000/svg">
<path d="M8.5 74L7.5 83.5L42.5 81.5L46 70L15.5 51L12 60.5L31.5 72.5L8.5 74Z" fill="white"/>
<path d="M24.1319 38.0321L19.0001 46.0891L51.2188 59.9079L59.4801 51.1757L40.6545 20.5678L33.2851 27.5098L45.387 46.9468L24.1319 38.0321Z" fill="white"/>
<path d="M55.5327 13.272L46.9992 17.565L67.5981 45.932L79.1655 42.6615L78.6674 6.73096L68.7828 8.92054L69.2254 31.8128L55.5327 13.272Z" fill="white"/>
<path d="M95.5378 7.16986L85.9992 6.6549L89.7788 41.5077L101.442 44.4175L118.864 12.9896L109.198 9.9779L98.207 30.0636L95.5378 7.16986Z" fill="white"/>
<path d="M131.918 20.7736L123.643 16L111.25 48.7934L120.336 56.664L150.089 36.5149L142.831 29.4569L123.943 42.399L131.918 20.7736Z" fill="white"/>
<path d="M12.2036 113.492L16.0147 122.252L45.485 103.265L42.8638 91.5331L6.96132 90.0291L8.59696 100.02L31.4783 100.854L12.2036 113.492Z" fill="white"/>
<path d="M34.9126 145.983L42.3757 151.946L59.5547 121.386L51.7543 112.24L19.3117 127.691L25.4275 135.759L46.0452 125.801L34.9126 145.983Z" fill="white"/>
<path d="M70.0217 163.491L79.4675 164.915L79.0346 129.86L67.7026 125.85L47.3577 155.469L56.6917 159.391L69.5517 140.447L70.0217 163.491Z" fill="white"/>
<path d="M108.992 162.908L117.985 159.688L100.998 129.021L89.1181 130.857L85.2322 166.58L95.3101 165.612L97.6615 142.837L108.992 162.908Z" fill="white"/>
<path d="M143.913 142.272L150.176 135.059L120.345 116.645L110.887 124.064L124.998 157.112L133.31 151.331L124.204 130.323L143.913 142.272Z" fill="white"/>
</svg>
